<svg width="12" height="14" viewBox="0 0 12 14" fill="none" xmlns="http://www.w3.org/2000/svg">
<path d="M7.875 12.875H4.125C4.05625 12.875 4 12.9312 4 13V13.5C4 13.7766 4.22344 14 4.5 14H7.5C7.77656 14 8 13.7766 8 13.5V13C8 12.9312 7.94375 12.875 7.875 12.875ZM6 0C3.17031 0 0.875 2.29531 0.875 5.125C0.875 7.02188 1.90625 8.67812 3.4375 9.56406V11.375C3.4375 11.6516 3.66094 11.875 3.9375 11.875H8.0625C8.33906 11.875 8.5625 11.6516 8.5625 11.375V9.56406C10.0938 8.67812 11.125 7.02188 11.125 5.125C11.125 2.29531 8.82969 0 6 0ZM7.99844 8.59062L7.4375 8.91562V10.75H4.5625V8.91562L4.00156 8.59062C2.77188 7.87969 2 6.57031 2 5.125C2 2.91563 3.79063 1.125 6 1.125C8.20937 1.125 10 2.91563 10 5.125C10 6.57031 9.22813 7.87969 7.99844 8.59062Z" fill="black" fill-opacity="0.88"/>
</svg>
