<svg width="21" height="21" viewBox="0 0 21 21" fill="none" xmlns="http://www.w3.org/2000/svg">
<path d="M7.50854 3.77344H7.35229C7.43823 3.77344 7.50854 3.69961 7.50854 3.60938V3.77344H13.446V3.60938C13.446 3.69961 13.5164 3.77344 13.6023 3.77344H13.446V5.25H14.8523V3.60938C14.8523 2.88545 14.2917 2.29688 13.6023 2.29688H7.35229C6.66284 2.29688 6.10229 2.88545 6.10229 3.60938V5.25H7.50854V3.77344ZM17.3523 5.25H3.60229C3.25659 5.25 2.97729 5.54326 2.97729 5.90625V6.5625C2.97729 6.65273 3.04761 6.72656 3.13354 6.72656H4.31323L4.79565 17.4521C4.8269 18.1515 5.37769 18.7031 6.0437 18.7031H14.9109C15.5789 18.7031 16.1277 18.1535 16.1589 17.4521L16.6414 6.72656H17.821C17.907 6.72656 17.9773 6.65273 17.9773 6.5625V5.90625C17.9773 5.54326 17.698 5.25 17.3523 5.25ZM14.7605 17.2266H6.19409L5.72144 6.72656H15.2332L14.7605 17.2266Z" fill="white" fill-opacity="0.85"/>
</svg>
