<svg width="21" height="21" viewBox="0 0 21 21" fill="none" xmlns="http://www.w3.org/2000/svg">
<path d="M5.55591 15.4219C5.59497 15.4219 5.63403 15.4178 5.6731 15.4116L8.95825 14.8066C8.99731 14.7984 9.03442 14.78 9.06177 14.7492L17.3411 6.05596C17.3592 6.03698 17.3735 6.01445 17.3833 5.98964C17.3931 5.96483 17.3982 5.93824 17.3982 5.91138C17.3982 5.88452 17.3931 5.85792 17.3833 5.83311C17.3735 5.80831 17.3592 5.78577 17.3411 5.7668L14.095 2.35635C14.0579 2.31738 14.009 2.29688 13.9563 2.29688C13.9036 2.29688 13.8547 2.31738 13.8176 2.35635L5.53833 11.0496C5.50903 11.0804 5.49146 11.1173 5.48364 11.1583L4.90747 14.6077C4.88847 14.7176 4.89526 14.8306 4.92725 14.9371C4.95924 15.0436 5.01547 15.1403 5.09106 15.2188C5.21997 15.3501 5.38208 15.4219 5.55591 15.4219ZM6.87231 11.8453L13.9563 4.40918L15.3879 5.9124L8.30396 13.3485L6.56763 13.6705L6.87231 11.8453ZM17.7102 17.1445H3.33521C2.9895 17.1445 2.71021 17.4378 2.71021 17.8008V18.5391C2.71021 18.6293 2.78052 18.7031 2.86646 18.7031H18.179C18.2649 18.7031 18.3352 18.6293 18.3352 18.5391V17.8008C18.3352 17.4378 18.0559 17.1445 17.7102 17.1445Z" fill="white" fill-opacity="0.85"/>
</svg>
