<svg width="17" height="18" viewBox="0 0 17 18" fill="none" xmlns="http://www.w3.org/2000/svg">
<path fill-rule="evenodd" clip-rule="evenodd" d="M1.92715 16.1143C2.20072 16.3877 2.57158 16.5414 2.95836 16.5414H11.0422C11.429 16.5414 11.7998 16.3877 12.0734 16.1143L12.1149 16.0728C12.3883 15.7993 12.542 15.4284 12.542 15.0416V6.9578C12.542 6.57102 12.3883 6.20016 12.1149 5.92658L12.0734 5.88514C11.7998 5.61171 11.429 5.45804 11.0422 5.45804H2.95836C2.57158 5.45804 2.20073 5.6117 1.92715 5.88514L1.8857 5.92658C1.61227 6.20016 1.4586 6.57102 1.4586 6.9578V15.0416C1.4586 15.4284 1.61226 15.7993 1.8857 16.0728L1.92715 16.1143ZM13.1456 4.8958L13.1042 4.85421C12.5573 4.30734 11.8155 4 11.0419 4H2.95808C2.18448 4 1.44267 4.30733 0.895795 4.85421L0.854211 4.8958C0.307341 5.44267 0 6.18466 0 6.95808V15.0419C0 15.8154 0.30733 16.5573 0.854211 17.1043L0.895795 17.1456C1.44267 17.6927 2.18451 18 2.95808 18H11.0419C11.8155 18 12.5573 17.6927 13.1042 17.1456L13.1456 17.1043C13.6927 16.5573 14 15.8154 14 15.0419V6.95808C14 6.18462 13.6927 5.44267 13.1456 4.8958Z" fill="white"/>
<path fill-rule="evenodd" clip-rule="evenodd" d="M13.5 12.5417H14.0419C14.4287 12.5417 14.7996 12.388 15.0731 12.1146L15.1146 12.0731C15.388 11.7996 15.5417 11.4287 15.5417 11.0419V2.95808C15.5417 2.5713 15.388 2.20045 15.1146 1.92686L15.0731 1.88542C14.7996 1.61199 14.4287 1.45832 14.0419 1.45832H5.95808C5.5713 1.45832 5.20045 1.61198 4.92687 1.88542L4.88543 1.92686C4.61199 2.20044 4.45832 2.5713 4.45832 2.95808V3.49996H3V2.95808C3 2.18448 3.30733 1.44267 3.85421 0.895795L3.89579 0.854211C4.44266 0.307341 5.18451 0 5.95808 0H14.0419C14.8154 0 15.5573 0.30733 16.1043 0.854211L16.1456 0.895795C16.6927 1.44267 17 2.18451 17 2.95808V11.0419C17 11.8155 16.6927 12.5573 16.1456 13.1042L16.1043 13.1456C15.5573 13.6927 14.8154 14 14.0419 14H13.5L13.5 12.5417Z" fill="white"/>
</svg>
