<?xml version="1.0" encoding="UTF-8"?>
<svg width="1200pt" height="1200pt" version="1.1" viewBox="0 0 1200 1200" xmlns="http://www.w3.org/2000/svg">
 <g>
  <path d="m1050 1125h-900c-4.9727 0.003906-9.7461-1.9727-13.262-5.4883s-5.4922-8.2891-5.4883-13.262v-1087.5c-0.003906-4.9727 1.9727-9.7461 5.4883-13.262s8.2891-5.4922 13.262-5.4883h900c4.9727-0.0039062 9.7461 1.9727 13.262 5.4883s5.4922 8.2891 5.4883 13.262v1087.5c0.003906 4.9727-1.9727 9.7461-5.4883 13.262s-8.2891 5.4922-13.262 5.4883zm-881.25-37.5h862.5v-1050h-862.5z"/>
  <path d="m1050 1200h-900c-4.9727 0.003906-9.7461-1.9727-13.262-5.4883s-5.4922-8.2891-5.4883-13.262v-75c-0.003906-4.9727 1.9727-9.7461 5.4883-13.262s8.2891-5.4922 13.262-5.4883h900c4.9727-0.003906 9.7461 1.9727 13.262 5.4883s5.4922 8.2891 5.4883 13.262v75c0.003906 4.9727-1.9727 9.7461-5.4883 13.262s-8.2891 5.4922-13.262 5.4883zm-881.25-37.5h862.5v-37.5h-862.5z"/>
  <path d="m225 1125c-4.9727 0.003906-9.7461-1.9727-13.262-5.4883s-5.4922-8.2891-5.4883-13.262v-1087.5c0-6.6992 3.5742-12.887 9.375-16.238 5.8008-3.3477 12.949-3.3477 18.75 0 5.8008 3.3516 9.375 9.5391 9.375 16.238v1087.5c0.003906 4.9727-1.9727 9.7461-5.4883 13.262s-8.2891 5.4922-13.262 5.4883z"/>
  <path d="m993.75 1200c-4.9727 0.003906-9.7461-1.9727-13.262-5.4883s-5.4922-8.2891-5.4883-13.262v-75c0-6.6992 3.5742-12.887 9.375-16.238 5.8008-3.3477 12.949-3.3477 18.75 0 5.8008 3.3516 9.375 9.5391 9.375 16.238v75c0.003906 4.9727-1.9727 9.7461-5.4883 13.262s-8.2891 5.4922-13.262 5.4883z"/>
  <path d="m656.27 900c-5.5781 0-10.863-2.4805-14.43-6.7695-3.5625-4.293-5.0312-9.9453-4.0117-15.426 1.0234-5.4844 4.4336-10.227 9.3047-12.941 1.1914-0.66016 118.43-66.926 140.94-156.9h-0.003906c1.6406-6.4805 6.6016-11.598 13.031-13.43 6.4258-1.8359 13.34-0.10938 18.152 4.5312 4.8086 4.6406 6.7852 11.492 5.1836 17.98-26.457 105.87-153.68 177.59-159.08 180.6v-0.003906c-2.7734 1.5547-5.9023 2.3672-9.082 2.3633z"/>
  <path d="m618.73 900c-3.1797 0.003906-6.3086-0.80859-9.082-2.3633-5.4023-3.0039-132.62-74.727-159.08-180.6-1.6016-6.4883 0.375-13.336 5.1836-17.977 4.8125-4.6406 11.727-6.3672 18.152-4.5352 6.4297 1.8359 11.391 6.9531 13.031 13.43 22.504 89.977 139.75 156.24 140.94 156.9l-0.003906 0.003906c4.8711 2.7148 8.2812 7.457 9.3047 12.941 1.0234 5.4805-0.44922 11.133-4.0117 15.426-3.5625 4.2891-8.8516 6.7695-14.43 6.7695z"/>
  <path d="m843.73 862.5c-4.2383-0.007812-8.3477-1.4453-11.66-4.0859-3.3164-2.6406-5.6406-6.3242-6.5938-10.453l-112.5-487.5c-1.4883-6.5195 0.61328-13.34 5.5117-17.898 4.8945-4.5547 11.848-6.1562 18.246-4.2031s11.27 7.1641 12.789 13.68l112.5 487.5c1.2891 5.5703-0.039063 11.426-3.6016 15.898s-8.9727 7.0742-14.691 7.0625z"/>
  <path d="m918.75 581.25c-4.9727 0.003906-9.7461-1.9727-13.262-5.4883s-5.4922-8.2891-5.4883-13.262c0-6.6992-3.5742-12.887-9.375-16.238-5.8008-3.3477-12.949-3.3477-18.75 0-5.8008 3.3516-9.375 9.5391-9.375 16.238s-3.5742 12.887-9.375 16.238c-5.8008 3.3477-12.949 3.3477-18.75 0-5.8008-3.3516-9.375-9.5391-9.375-16.238 0-20.098 10.723-38.664 28.125-48.715 17.402-10.047 38.848-10.047 56.25 0 17.402 10.051 28.125 28.617 28.125 48.715 0.003906 4.9727-1.9727 9.7461-5.4883 13.262s-8.2891 5.4922-13.262 5.4883z"/>
  <path d="m843.75 693.75c-6.6992 0-12.887-3.5742-16.238-9.375-3.3477-5.8008-3.3477-12.949 0-18.75 3.3516-5.8008 9.5391-9.375 16.238-9.375 30.488 0 56.25-42.938 56.25-93.75 0-6.6992 3.5742-12.887 9.375-16.238 5.8008-3.3477 12.949-3.3477 18.75 0 5.8008 3.3516 9.375 9.5391 9.375 16.238 0 73.59-41.18 131.25-93.75 131.25z"/>
  <path d="m843.75 862.5c-4.9727 0.003906-9.7461-1.9727-13.262-5.4883s-5.4922-8.2891-5.4883-13.262v-281.25c0-6.6992 3.5742-12.887 9.375-16.238 5.8008-3.3477 12.949-3.3477 18.75 0 5.8008 3.3516 9.375 9.5391 9.375 16.238v281.25c0.003906 4.9727-1.9727 9.7461-5.4883 13.262s-8.2891 5.4922-13.262 5.4883z"/>
  <path d="m974.98 750c-3.0781 0-6.1094-0.76172-8.8242-2.2148-71.484-38.234-66.887-171.18-66.137-186.24 0.37891-6.6562 4.2695-12.613 10.215-15.637 5.9414-3.0273 13.043-2.668 18.652 0.9375 5.6094 3.6094 8.8828 9.9219 8.5938 16.586-1.6836 34.277 3.3711 128.29 46.363 151.28 4.9531 2.6484 8.457 7.3789 9.5508 12.887 1.0898 5.5078-0.34375 11.215-3.9102 15.555-3.5625 4.3398-8.8867 6.8516-14.504 6.8438z"/>
  <path d="m918.75 825c-4.9727 0.003906-9.7461-1.9727-13.258-5.4922l-75-75c-4.6641-4.75-6.4609-11.621-4.7148-18.043 1.7422-6.4258 6.7617-11.445 13.188-13.188 6.4219-1.7461 13.293 0.050781 18.043 4.7148l75 75c3.5117 3.5195 5.4883 8.2852 5.4883 13.258s-1.9766 9.7422-5.4922 13.258c-3.5156 3.5156-8.2812 5.4922-13.254 5.4922z"/>
  <path d="m953.98 752.11c-49.613-0.91406-95.898-25.156-124.9-65.422-4.1719-5.2422-5.2344-12.309-2.7812-18.543 2.4492-6.2344 8.0391-10.688 14.664-11.684 6.625-0.99609 13.277 1.6211 17.453 6.8594 50.793 63.832 109.52 50.371 111.97 49.75 6.4688-1.6133 13.305 0.32812 17.965 5.0977 4.6562 4.7695 6.4336 11.652 4.6641 18.078-1.7656 6.4297-6.8125 11.438-13.254 13.152-8.457 1.9219-17.113 2.832-25.781 2.7109z"/>
  <path d="m918.75 825c-4.9727 0.003906-9.7461-1.9727-13.262-5.4883s-5.4922-8.2891-5.4883-13.262v-78.203c0-6.6992 3.5742-12.891 9.375-16.238 5.8008-3.3516 12.949-3.3516 18.75 0 5.8008 3.3477 9.375 9.5391 9.375 16.238v78.203c0.003906 4.9727-1.9727 9.7461-5.4883 13.262s-8.2891 5.4922-13.262 5.4883z"/>
  <path d="m918.77 600c-5.7383 0-11.16-2.625-14.719-7.125-3.5586-4.5-4.8633-10.383-3.5391-15.965 23.18-97.285 10.785-179.94-35.852-239.01-47.258-59.84-130.04-94.152-227.16-94.152-6.6992 0-12.887-3.5742-16.238-9.375-3.3477-5.8008-3.3477-12.949 0-18.75 3.3516-5.8008 9.5391-9.375 16.238-9.375 110.27 0 201.38 38.508 256.59 108.4 54.016 68.41 68.848 162.1 42.902 270.94-0.97656 4.1016-3.3047 7.7539-6.6094 10.367-3.3047 2.6133-7.3945 4.0391-11.609 4.043z"/>
  <path d="m600 731.25c-3.7539-0.003906-7.4219-1.1328-10.531-3.2422-3.1055-2.1055-5.5117-5.0977-6.9023-8.5859-20.613-47.754-28.996-99.891-24.391-151.7 4.6016-51.809 22.047-101.65 50.758-145.02 35.141-51.766 83.148-85.199 122.32-85.199 6.6992 0 12.887 3.5742 16.238 9.375 3.3477 5.8008 3.3477 12.949 0 18.75-3.3516 5.8008-9.5391 9.375-16.238 9.375-21.477 0-59.215 21.516-91.297 68.773-25.238 38.32-40.512 82.332-44.445 128.05-3.9336 45.715 3.6016 91.688 21.926 133.75 2.2969 5.7773 1.582 12.316-1.9102 17.457-3.4922 5.1445-9.3086 8.2188-15.523 8.2148z"/>
  <path d="m375 506.25c-4.9727 0.003906-9.7461-1.9727-13.262-5.4883s-5.4922-8.2891-5.4883-13.262c1.8672-74.004 32.098-144.46 84.445-196.8 52.344-52.348 122.8-82.578 196.8-84.445 6.6992 0 12.887 3.5742 16.238 9.375 3.3477 5.8008 3.3477 12.949 0 18.75-3.3516 5.8008-9.5391 9.375-16.238 9.375-64.137 1.6172-125.2 27.82-170.57 73.184-45.363 45.367-71.566 106.43-73.184 170.57 0.003906 4.9727-1.9727 9.7461-5.4883 13.262s-8.2891 5.4922-13.262 5.4883z"/>
  <path d="m600 731.25c-64.625-0.074219-126.58-25.781-172.27-71.477-45.695-45.695-71.402-107.65-71.477-172.27 0-6.6992 3.5742-12.887 9.375-16.238 5.8008-3.3477 12.949-3.3477 18.75 0 5.8008 3.3516 9.375 9.5391 9.375 16.238 0.0625 54.684 21.812 107.11 60.477 145.77 38.668 38.664 91.09 60.414 145.77 60.477 6.6992 0 12.887 3.5742 16.238 9.375 3.3477 5.8008 3.3477 12.949 0 18.75-3.3516 5.8008-9.5391 9.375-16.238 9.375z"/>
  <path d="m656.25 900h-37.5c-6.6992 0-12.887-3.5742-16.238-9.375-3.3477-5.8008-3.3477-12.949 0-18.75 3.3516-5.8008 9.5391-9.375 16.238-9.375h37.5c6.6992 0 12.887 3.5742 16.238 9.375 3.3477 5.8008 3.3477 12.949 0 18.75-3.3516 5.8008-9.5391 9.375-16.238 9.375z"/>
  <path d="m806.27 731.25c-5.4648-0.007812-10.652-2.3945-14.215-6.5352-3.5625-4.1445-5.1445-9.6328-4.3359-15.035l2.8555-18.75h0.003906c0.73438-4.9219 3.4023-9.3516 7.4102-12.309 4.0039-2.9531 9.0234-4.1953 13.945-3.4453s9.3438 3.4258 12.289 7.4375c2.9453 4.0156 4.1758 9.0352 3.4141 13.957l-2.8555 18.75c-0.67188 4.4297-2.9102 8.4727-6.3047 11.395-3.3984 2.9219-7.7266 4.5312-12.207 4.5352z"/>
  <path d="m468.73 731.25c-4.2773-0.007812-8.4258-1.4766-11.758-4.1641-3.3281-2.6875-5.6406-6.4297-6.5508-10.613l-11.004-50.629c-1.4023-6.5391 0.78516-13.328 5.7383-17.82 4.957-4.4922 11.926-6.0078 18.297-3.9766s11.18 7.3008 12.621 13.832l11.004 50.648c1.207 5.5469-0.16406 11.34-3.7305 15.758-3.5625 4.4141-8.9414 6.9766-14.617 6.9648z"/>
  <path d="m356.25 806.25c-6.6992 0-12.887-3.5742-16.238-9.375-3.3477-5.8008-3.3477-12.949 0-18.75 3.3516-5.8008 9.5391-9.375 16.238-9.375 53.246 0 79.082-4.2461 103.16-44.953 3.4102-5.75 9.6328-9.25 16.32-9.1758 6.6875 0.074218 12.832 3.707 16.117 9.5312 3.2891 5.8281 3.2188 12.961-0.17578 18.727-34.773 58.828-78.059 63.371-135.43 63.371z"/>
  <path d="m356.27 806.25c-5.2852 0.003906-10.328-2.2227-13.883-6.1328-3.5586-3.9102-5.2969-9.1406-4.7969-14.402 0.50391-5.2578 3.2031-10.062 7.4375-13.23 42.332-31.641 48.723-64.359 48.723-160.51 0-6.6992 3.5742-12.891 9.375-16.238 5.8008-3.3516 12.949-3.3516 18.75 0 5.8008 3.3477 9.375 9.5391 9.375 16.238 0 99.352-6.0234 147.4-63.777 190.54-3.2305 2.4297-7.1641 3.7383-11.203 3.7344z"/>
  <path d="m318.77 731.25c-5.6758 0.007812-11.051-2.5586-14.617-6.9766-3.5625-4.418-4.9336-10.211-3.7266-15.762 1.207-5.5469 4.8594-10.246 9.9375-12.785 32.172-16.074 45.887-78.352 45.887-208.23 0-6.6992 3.5742-12.887 9.375-16.238 5.8008-3.3477 12.949-3.3477 18.75 0 5.8008 3.3516 9.375 9.5391 9.375 16.238 0 151.96-18.055 217.49-66.613 241.77-2.5977 1.2969-5.4648 1.9727-8.3672 1.9766z"/>
  <path d="m318.73 731.25c-6.2422-0.003906-12.074-3.1133-15.555-8.2969-3.4805-5.1797-4.1562-11.754-1.8008-17.535s7.4375-10.012 13.547-11.285l90.125-18.75c6.5625-1.3672 13.355 0.87109 17.82 5.8711 4.4648 4.9961 5.9219 12 3.8242 18.363-2.0938 6.3672-7.4297 11.133-13.992 12.5l-90.125 18.75h0.003906c-1.2695 0.25-2.5547 0.37891-3.8477 0.38281z"/>
  <path d="m731.62 609.38c-6.6992 0.03125-12.906-3.5117-16.285-9.2969-3.3789-5.7852-3.4141-12.93-0.089843-18.75 3.3203-5.8164 9.4922-9.4219 16.191-9.4531h0.18359c6.6992 0 12.887 3.5742 16.238 9.375 3.3477 5.8008 3.3477 12.949 0 18.75-3.3516 5.8008-9.5391 9.375-16.238 9.375z"/>
  <path d="m674.98 618.75c-4.4727 0-8.7969-1.6016-12.195-4.5156-3.3945-2.9102-5.6367-6.9414-6.3242-11.359-0.68359-4.4219 0.23437-8.9414 2.5898-12.746 36.914-59.656 116.27-46.672 119.61-46.105 6.6016 1.1445 12.09 5.7266 14.398 12.012 2.3086 6.2891 1.0859 13.332-3.207 18.477-4.2891 5.1445-11 7.6094-17.602 6.4648-0.49609-0.10937-57.77-9.1367-81.297 28.895v-0.003906c-3.4219 5.5312-9.4648 8.8906-15.969 8.8828z"/>
  <path d="m675 806.25h-56.25c-6.6992 0-12.887-3.5742-16.238-9.375-3.3477-5.8008-3.3477-12.949 0-18.75 3.3516-5.8008 9.5391-9.375 16.238-9.375h56.25c6.6992 0 12.887 3.5742 16.238 9.375 3.3477 5.8008 3.3477 12.949 0 18.75-3.3516 5.8008-9.5391 9.375-16.238 9.375z"/>
  <path d="m731.25 937.5c-4.9727 0.003906-9.7461-1.9727-13.262-5.4883s-5.4922-8.2891-5.4883-13.262v-92.98c0-6.6992 3.5742-12.891 9.375-16.238 5.8008-3.3516 12.949-3.3516 18.75 0 5.8008 3.3477 9.375 9.5391 9.375 16.238v92.98c0.003906 4.9727-1.9727 9.7461-5.4883 13.262s-8.2891 5.4922-13.262 5.4883z"/>
  <path d="m974.98 1050c-2.707 0-5.3789-0.58594-7.8359-1.7227l-243.75-112.5c-6.0859-2.8047-10.211-8.6445-10.82-15.316-0.61328-6.6719 2.3828-13.164 7.8555-17.027 5.4727-3.8672 12.59-4.5195 18.676-1.7109l243.75 112.5c5.2148 2.4062 9.043 7.0703 10.383 12.656 1.3359 5.5898 0.039063 11.48-3.5195 15.988-3.5625 4.5117-8.9922 7.1406-14.738 7.1328z"/>
  <path d="m543.75 937.5c-4.9727 0.003906-9.7461-1.9727-13.262-5.4883s-5.4922-8.2891-5.4883-13.262v-93c0-6.6992 3.5742-12.887 9.375-16.238 5.8008-3.3477 12.949-3.3477 18.75 0 5.8008 3.3516 9.375 9.5391 9.375 16.238v93c0.003906 4.9727-1.9727 9.7461-5.4883 13.262s-8.2891 5.4922-13.262 5.4883z"/>
  <path d="m300.02 1050c-5.7461 0.007812-11.176-2.6211-14.738-7.1289-3.5586-4.5117-4.8555-10.402-3.5195-15.992 1.3398-5.5859 5.1641-10.25 10.383-12.656l243.75-112.5c6.0859-2.8086 13.203-2.1562 18.676 1.7109 5.4727 3.8633 8.4648 10.355 7.8555 17.027-0.61328 6.6719-4.7344 12.512-10.82 15.316l-243.75 112.5c-2.457 1.1367-5.1289 1.7227-7.8359 1.7227z"/>
  <path d="m300 1125c-4.9727 0.003906-9.7461-1.9727-13.262-5.4883s-5.4922-8.2891-5.4883-13.262v-75c0-6.6992 3.5742-12.887 9.375-16.238 5.8008-3.3477 12.949-3.3477 18.75 0 5.8008 3.3516 9.375 9.5391 9.375 16.238v75c0.003906 4.9727-1.9727 9.7461-5.4883 13.262s-8.2891 5.4922-13.262 5.4883z"/>
  <path d="m975 1125c-4.9727 0.003906-9.7461-1.9727-13.262-5.4883s-5.4922-8.2891-5.4883-13.262v-75c0-6.6992 3.5742-12.887 9.375-16.238 5.8008-3.3477 12.949-3.3477 18.75 0 5.8008 3.3516 9.375 9.5391 9.375 16.238v75c0.003906 4.9727-1.9727 9.7461-5.4883 13.262s-8.2891 5.4922-13.262 5.4883z"/>
  <path d="m843.75 1068.8c-4.9727 0.003906-9.7461-1.9727-13.262-5.4883s-5.4922-8.2891-5.4883-13.262v-79.359c0-6.6953 3.5742-12.887 9.375-16.238 5.8008-3.3477 12.949-3.3477 18.75 0 5.8008 3.3516 9.375 9.543 9.375 16.238v79.359c0.003906 4.9727-1.9727 9.7461-5.4883 13.262s-8.2891 5.4922-13.262 5.4883z"/>
  <path d="m787.5 1068.8c-4.9727 0.003906-9.7461-1.9727-13.262-5.4883s-5.4922-8.2891-5.4883-13.262v-105.32c0-6.6953 3.5742-12.887 9.375-16.234 5.8008-3.3516 12.949-3.3516 18.75 0 5.8008 3.3477 9.375 9.5391 9.375 16.234v105.32c0.003906 4.9727-1.9727 9.7461-5.4883 13.262s-8.2891 5.4922-13.262 5.4883z"/>
  <path d="m881.25 1125c-4.9727 0.003906-9.7461-1.9727-13.262-5.4883s-5.4922-8.2891-5.4883-13.262v-56.25c0-6.6992 3.5742-12.887 9.375-16.238 5.8008-3.3477 12.949-3.3477 18.75 0 5.8008 3.3516 9.375 9.5391 9.375 16.238v56.25c0.003906 4.9727-1.9727 9.7461-5.4883 13.262s-8.2891 5.4922-13.262 5.4883z"/>
  <path d="m431.25 1068.8c-4.9727 0.003906-9.7461-1.9727-13.262-5.4883s-5.4922-8.2891-5.4883-13.262v-79.359c0-6.6953 3.5742-12.887 9.375-16.238 5.8008-3.3477 12.949-3.3477 18.75 0 5.8008 3.3516 9.375 9.543 9.375 16.238v79.359c0.003906 4.9727-1.9727 9.7461-5.4883 13.262s-8.2891 5.4922-13.262 5.4883z"/>
  <path d="m487.5 1068.8c-4.9727 0.003906-9.7461-1.9727-13.262-5.4883s-5.4922-8.2891-5.4883-13.262v-105.32c0-6.6953 3.5742-12.887 9.375-16.234 5.8008-3.3516 12.949-3.3516 18.75 0 5.8008 3.3477 9.375 9.5391 9.375 16.234v105.32c0.003906 4.9727-1.9727 9.7461-5.4883 13.262s-8.2891 5.4922-13.262 5.4883z"/>
  <path d="m393.75 1125c-4.9727 0.003906-9.7461-1.9727-13.262-5.4883s-5.4922-8.2891-5.4883-13.262v-56.25c0-6.6992 3.5742-12.887 9.375-16.238 5.8008-3.3477 12.949-3.3477 18.75 0 5.8008 3.3516 9.375 9.5391 9.375 16.238v56.25c0.003906 4.9727-1.9727 9.7461-5.4883 13.262s-8.2891 5.4922-13.262 5.4883z"/>
  <path d="m881.25 1068.8h-487.5c-6.6992 0-12.887-3.5742-16.238-9.375-3.3477-5.8008-3.3477-12.949 0-18.75 3.3516-5.8008 9.5391-9.375 16.238-9.375h487.5c6.6992 0 12.887 3.5742 16.238 9.375 3.3477 5.8008 3.3477 12.949 0 18.75-3.3516 5.8008-9.5391 9.375-16.238 9.375z"/>
  <path d="m675.02 806.25c-5.6758 0.007812-11.051-2.5586-14.617-6.9766-3.5625-4.418-4.9336-10.211-3.7266-15.762 1.207-5.5469 4.8594-10.246 9.9375-12.785l18.75-9.375c5.9922-2.9766 13.113-2.5391 18.691 1.1523 5.5781 3.6914 8.7695 10.074 8.375 16.75-0.39453 6.6758-4.3164 12.637-10.293 15.645l-18.75 9.375c-2.5977 1.2969-5.4648 1.9727-8.3672 1.9766z"/>
  <path d="m975 112.5h-675c-6.6992 0-12.887-3.5742-16.238-9.375-3.3477-5.8008-3.3477-12.949 0-18.75 3.3516-5.8008 9.5391-9.375 16.238-9.375h675c6.6992 0 12.887 3.5742 16.238 9.375 3.3477 5.8008 3.3477 12.949 0 18.75-3.3516 5.8008-9.5391 9.375-16.238 9.375z"/>
  <path d="m843.75 168.75h-412.5c-6.6992 0-12.887-3.5742-16.238-9.375-3.3477-5.8008-3.3477-12.949 0-18.75 3.3516-5.8008 9.5391-9.375 16.238-9.375h412.5c6.6992 0 12.887 3.5742 16.238 9.375 3.3477 5.8008 3.3477 12.949 0 18.75-3.3516 5.8008-9.5391 9.375-16.238 9.375z"/>
  <path d="m393.75 900h-93.75c-6.6992 0-12.887-3.5742-16.238-9.375-3.3477-5.8008-3.3477-12.949 0-18.75 3.3516-5.8008 9.5391-9.375 16.238-9.375h93.75c6.6992 0 12.887 3.5742 16.238 9.375 3.3477 5.8008 3.3477 12.949 0 18.75-3.3516 5.8008-9.5391 9.375-16.238 9.375z"/>
  <path d="m337.5 956.25h-37.5c-6.6992 0-12.887-3.5742-16.238-9.375-3.3477-5.8008-3.3477-12.949 0-18.75 3.3516-5.8008 9.5391-9.375 16.238-9.375h37.5c6.6992 0 12.887 3.5742 16.238 9.375 3.3477 5.8008 3.3477 12.949 0 18.75-3.3516 5.8008-9.5391 9.375-16.238 9.375z"/>
  <path d="m975 900h-93.75c-6.6992 0-12.887-3.5742-16.238-9.375-3.3477-5.8008-3.3477-12.949 0-18.75 3.3516-5.8008 9.5391-9.375 16.238-9.375h93.75c6.6992 0 12.887 3.5742 16.238 9.375 3.3477 5.8008 3.3477 12.949 0 18.75-3.3516 5.8008-9.5391 9.375-16.238 9.375z"/>
  <path d="m975 956.25h-37.5c-6.6992 0-12.887-3.5742-16.238-9.375-3.3477-5.8008-3.3477-12.949 0-18.75 3.3516-5.8008 9.5391-9.375 16.238-9.375h37.5c6.6992 0 12.887 3.5742 16.238 9.375 3.3477 5.8008 3.3477 12.949 0 18.75-3.3516 5.8008-9.5391 9.375-16.238 9.375z"/>
 </g>
</svg>
