<?xml version="1.0" encoding="UTF-8"?>
<svg width="1200pt" height="1200pt" version="1.1" viewBox="0 0 1200 1200" xmlns="http://www.w3.org/2000/svg">
 <g>
  <path d="m600 978.96c-2.6406 0-5.3984-1.0781-7.3203-3.2383-3.8398-4.0781-3.6016-10.441 0.48047-14.16 40.199-37.559 98.879-60.359 169.8-65.879 43.32-3.3594 87-0.60156 129.24 2.1602 16.559 1.0781 33.84 2.1602 50.641 2.8789 48.238 2.0391 110.16 1.4414 165.6-19.68v-708c-56.879 19.922-118.2 20.398-166.32 18.359-17.039-0.71875-34.32-1.8008-51.121-2.8789-41.641-2.6406-84.602-5.3984-126.48-2.1602-46.32 3.6016-111.12 17.039-157.68 60.48-4.0781 3.8398-10.441 3.6016-14.16-0.48047-3.8398-4.0781-3.6016-10.441 0.48047-14.16 40.199-37.559 98.879-60.359 169.8-65.879 43.199-3.3594 87-0.60156 129.24 2.1602 16.559 1.0781 33.84 2.1602 50.641 2.8789 50.039 2.0391 114.84 1.4414 171.72-22.199 3.1211-1.3203 6.6016-0.96094 9.4805 0.96094 2.7617 1.9219 4.4414 5.0391 4.4414 8.3984v729.36c0 4.0781-2.3984 7.6797-6.2383 9.2383-60.602 25.078-128.16 25.801-180.24 23.641-17.039-0.71875-34.32-1.8008-51.121-2.8789-41.641-2.6406-84.602-5.3984-126.48-2.1602-46.32 3.6016-111.12 17.039-157.68 60.48-1.8008 1.8008-4.3242 2.7617-6.7227 2.7617z"/>
  <path d="m600 1051.6c-16.922 0-33.84-4.3203-49.32-12.84-36.961-20.52-81.961-33-134.04-37.078-46.801-3.6016-94.68-0.60156-141.12 2.3984-18.602 1.1992-37.922 2.3984-56.879 3.2383-91.078 3.8398-160.56-4.8008-212.4-26.281-3.8438-1.6758-6.2422-5.2773-6.2422-9.3555v-732c0-5.5195 4.5586-10.078 10.078-10.078h71.398c5.5195 0 10.078 4.5586 10.078 10.078s-4.5586 10.078-10.078 10.078h-61.316v715.2c48 18.238 114.36 25.801 197.64 22.32 18.84-0.71875 37.922-2.0391 56.52-3.2383 47.16-3 95.879-6.1211 144-2.3984 54.961 4.3203 102.84 17.641 142.32 39.48 24.719 13.801 54.359 13.801 79.078 0 39.48-21.961 87.359-35.281 142.32-39.48 48.121-3.7188 96.84-0.60156 144 2.3984 18.48 1.1992 37.68 2.3984 56.52 3.2383 83.16 3.4805 149.64-4.0781 197.64-22.32v-715.32h-61.32c-5.5195 0-10.078-4.5586-10.078-10.078 0-5.5195 4.5586-10.078 10.078-10.078h71.398c5.5195 0 10.078 4.5586 10.078 10.078v732c0 4.0781-2.3984 7.6797-6.2383 9.2383-51.84 21.48-121.2 30.121-212.4 26.281-18.961-0.83984-38.281-2.0391-56.879-3.2383-46.441-3-94.441-6-141.12-2.3984-52.078 4.0781-97.199 16.559-134.04 37.078-15.84 8.7539-32.758 13.074-49.68 13.074z"/>
  <path d="m600 978.96c-2.3984 0-4.9219-0.83984-6.8398-2.7617-46.559-43.441-111.48-56.879-157.68-60.48-41.879-3.2383-84.84-0.48047-126.48 2.1602-16.68 1.0781-34.078 2.1602-51.121 2.8789-52.078 2.1602-119.76 1.4414-180.24-23.641-3.7188-1.5586-6.2383-5.2812-6.2383-9.2383l-0.003906-729.36c0-3.3594 1.6797-6.4805 4.4414-8.3984 2.7617-1.9219 6.3594-2.1602 9.4805-0.96094 56.879 23.641 121.68 24.238 171.72 22.199 16.801-0.71875 33.961-1.8008 50.641-2.8789 42.359-2.7617 86.039-5.5195 129.24-2.1602 70.922 5.5195 129.72 28.32 169.92 65.879 2.0391 1.9219 3.2383 4.5586 3.2383 7.3203v606.12c0 5.5195-4.5586 10.078-10.078 10.078s-10.078-4.5586-10.078-10.078v-601.68c-46.32-41.16-109.32-54-154.56-57.602-41.879-3.2383-84.84-0.48047-126.48 2.1602-16.68 1.0781-34.078 2.1602-51.121 2.8789-48.121 2.0391-109.56 1.5586-166.32-18.359v707.88c55.32 21.121 117.24 21.719 165.6 19.68 16.801-0.71875 33.961-1.8008 50.641-2.8789 42.238-2.7617 86.039-5.5195 129.24-2.1602 70.922 5.5195 129.72 28.32 169.92 65.879 4.0781 3.8398 4.3203 10.199 0.48047 14.16-1.9258 2.2812-4.6836 3.3633-7.3242 3.3633z"/>
  <path d="m740.04 436.8h-1.0781c-5.5195 0-10.078-4.5586-9.9609-10.078 0-5.5195 4.5586-9.9609 10.078-9.9609h1.0781c28.199 0 56.879-5.5195 84.602-10.922 8.1602-1.5586 16.199-3.1211 24.359-4.5586 35.52-6.3594 77.16-11.281 116.52 0.23828 5.2812 1.5586 8.3984 7.0781 6.8398 12.48-1.5586 5.2812-7.0781 8.3984-12.48 6.8398-35.52-10.32-74.16-5.7617-107.4 0.23828-8.0391 1.4414-16.078 3-24 4.5586-28.797 5.4023-58.438 11.164-88.559 11.164z"/>
  <path d="m850.8 570.84c-5.5195 0-10.078-4.5586-10.078-10.078l-0.003906-149.76c0-5.5195 4.5586-10.078 10.078-10.078s10.078 4.5586 10.078 10.078v149.76c-0.11328 5.6367-4.5547 10.078-10.074 10.078z"/>
  <path d="m761.04 598.32c-4.9219 0-9.2383-3.7188-9.9609-8.7617-0.71875-5.5195 3.1211-10.559 8.6406-11.281 56.641-7.3203 111.84-22.68 164.16-45.48 5.1602-2.1602 11.039 0.12109 13.199 5.1602 2.1602 5.0391-0.12109 11.039-5.1602 13.199-54.121 23.52-111.12 39.359-169.56 46.922-0.48047 0.12109-0.83984 0.24219-1.3203 0.24219z"/>
  <path d="m850.92 732.84c-5.5195 0-10.078-4.5586-10.078-10.078v-97.199c0-5.5195 4.5586-10.078 10.078-10.078s10.078 4.5586 10.078 10.078v97.199c0 5.6367-4.5586 10.078-10.078 10.078z"/>
  <path d="m994.08 732.84h-269.64c-5.5195 0-10.078-4.5586-10.078-10.078s4.5586-10.078 10.078-10.078h253.44l-24.121-48.238c-2.5195-4.9219-0.48047-11.039 4.5586-13.441 4.9219-2.5195 11.039-0.48047 13.441 4.4414l31.32 62.762c1.5586 3.1211 1.4414 6.8398-0.48047 9.7188-1.8008 3.1133-5.043 4.9141-8.5234 4.9141z"/>
 </g>
</svg>
