<?xml version="1.0" encoding="UTF-8"?>
<svg width="1200pt" height="1200pt" version="1.1" viewBox="0 0 1200 1200" xmlns="http://www.w3.org/2000/svg">
 <path d="m998.14 168.27c-27.191-27.191-63.359-42.145-101.83-42.145-38.473 0-74.594 14.977-101.79 42.145l-50.902 50.902-492.14 492.21c-0.26562 0.23828-0.33594 0.50391-0.50391 0.74219-1.6562 1.8242-3.0469 3.8867-4.1055 6.1914-0.26562 0.55078-0.55078 1.0312-0.76953 1.5859-0.12109 0.28906-0.3125 0.50391-0.40625 0.79297l-84.887 254.54c-2.8789 8.6172-0.625 18.191 5.7852 24.551 4.5352 4.5859 10.68 7.0312 16.969 7.0312 2.4961 0 5.1133-0.38281 7.5586-1.2227l254.54-84.84c0.3125-0.097656 0.52734-0.33594 0.86328-0.43359 0.50391-0.19141 0.98438-0.50391 1.4883-0.69531 2.3047-1.0781 4.4414-2.4961 6.2383-4.1758 0.26562-0.23828 0.52734-0.28906 0.76953-0.50391l492.17-492.12 50.902-50.902c27.098-27.07 42.121-63.215 42.359-101.98-0.1875-38.469-15.215-74.59-42.309-101.68zm-220.61 84.84 33.961 33.961-475.2 475.17-33.938-33.938zm-424.27 526.1 475.22-475.18 33.938 33.961-475.23 475.2zm-116.76 120.79 29.902 29.953-44.879 15zm55.367 21.48-46.895-46.871 33.938-101.86 114.77 114.79zm146.23-57.434-33.938-33.938 475.22-475.15 33.938 33.938zm526.1-526.05-16.969 16.969-135.74-135.77 16.969-16.969c37.441-37.414 98.305-37.441 135.74 0 18.121 18.098 28.152 42.238 28.297 67.754-0.14453 25.75-10.199 49.918-28.297 68.016z"/>
</svg>
